<?xml version="1.0" encoding="UTF-8"?> <svg xmlns="http://www.w3.org/2000/svg" width="251" height="55" viewBox="0 0 251 55" fill="none"> <path d="M0.239258 4.71007H32.4081L41.0248 13.3313V46.3792L32.4081 55.0004H0.239258V4.71007ZM27.5971 46.6665L31.2592 43.0025V16.7079L27.5971 13.0439H10.0048V46.6665H27.5971Z" fill="white"></path> <path d="M48.2395 4.71007H56.9998L79.4031 38.8356H79.5467V4.71007H88.9532V55.0004H80.193L57.7896 20.9466H57.646V55.0004H48.2395V4.71007Z" fill="white"></path> <path d="M112.381 4.71007H121.285L139.667 55.0004H129.758L125.665 43.8646H108.001L103.908 55.0004H93.9987L112.381 4.71007ZM123.511 35.8182L116.833 16.7079H116.689L110.227 35.8182H123.511Z" fill="white"></path> <path d="M156.421 29.3601V15.7099H152.113V10.3935H156.517V2.63443H162.74V10.3935H170.017V15.7578H162.74V27.3006L164.368 28.8812H170.017V34.2455H161.352L156.421 29.3601Z" fill="white"></path> <path d="M172.909 29.3601V15.3746L177.839 10.3935H191.291L196.269 15.3746V24.4269H179.228V27.4922L180.759 29.0727H188.562L189.998 27.588V26.3427H196.222V29.4559L191.482 34.2455H177.744L172.909 29.3601ZM189.951 20.0205V17.2426L188.323 15.5662H180.855L179.228 17.2426V20.0205H189.951Z" fill="white"></path> <path d="M200.817 29.3601V15.2788L205.652 10.3935H218.769L223.699 15.3746V19.781H217.381V17.4341L215.705 15.7578H208.812L207.136 17.4341V27.2048L208.812 28.8812H215.705L217.381 27.2048V24.8579H223.699V29.2643L218.769 34.2455H205.652L200.817 29.3601Z" fill="white"></path> <path d="M227.989 2.63443H234.308V14.0815L237.994 10.3935H245.606L250.919 15.7099V34.2455H244.6V17.4341L242.973 15.7578H238.856L234.308 20.3558V34.2455H227.989V2.63443Z" fill="white"></path> <path fill-rule="evenodd" clip-rule="evenodd" d="M251 55.0001H154.541V44.6227H251V55.0001Z" fill="white"></path> </svg> 